<svg width="244" height="55" viewBox="0 0 244 55" fill="none" xmlns="http://www.w3.org/2000/svg">
<path fill-rule="evenodd" clip-rule="evenodd" d="M10.08 31.47L7.7 35.95V51H0V2H7.7V23.35L17.78 2H25.48L14.77 23.84L25.48 51H17.57L10.08 31.47ZM36.35 39.73C36.35 41.5033 36.7117 42.7517 37.435 43.475C38.1583 44.1983 39.1267 44.56 40.34 44.56C41.5533 44.56 42.5217 44.1983 43.245 43.475C43.9683 42.7517 44.33 41.5033 44.33 39.73V13.27C44.33 11.4967 43.9683 10.2483 43.245 9.525C42.5217 8.80167 41.5533 8.44 40.34 8.44C39.1267 8.44 38.1583 8.80167 37.435 9.525C36.7117 10.2483 36.35 11.4967 36.35 13.27V39.73ZM28.65 13.76C28.65 9.79332 29.6533 6.74835 31.66 4.625C33.6667 2.50166 36.56 1.44 40.34 1.44C44.12 1.44 47.0133 2.50166 49.02 4.625C51.0267 6.74835 52.03 9.79332 52.03 13.76V39.24C52.03 43.2067 51.0267 46.2517 49.02 48.375C47.0133 50.4983 44.12 51.56 40.34 51.56C36.56 51.56 33.6667 50.4983 31.66 48.375C29.6533 46.2517 28.65 43.2067 28.65 39.24V13.76ZM64.65 15.51V51H57.72V2H67.38L75.29 31.33V2H82.15V51H74.24L64.65 15.51ZM87.49 13.76C87.49 9.79332 88.435 6.74835 90.325 4.625C92.215 2.50166 95.05 1.44 98.83 1.44C102.61 1.44 105.445 2.50166 107.335 4.625C109.225 6.74835 110.17 9.79332 110.17 13.76V15.3H102.89V13.27C102.89 11.4967 102.552 10.2483 101.875 9.525C101.198 8.80167 100.253 8.44 99.04 8.44C97.8267 8.44 96.8817 8.80167 96.205 9.525C95.5283 10.2483 95.19 11.4967 95.19 13.27C95.19 14.95 95.5633 16.4317 96.31 17.715C97.0567 18.9983 97.99 20.2117 99.11 21.355C100.23 22.4983 101.432 23.6417 102.715 24.785C103.998 25.9283 105.2 27.1767 106.32 28.53C107.44 29.8833 108.373 31.4233 109.12 33.15C109.867 34.8767 110.24 36.9067 110.24 39.24C110.24 43.2067 109.272 46.2517 107.335 48.375C105.398 50.4983 102.54 51.56 98.76 51.56C94.98 51.56 92.1217 50.4983 90.185 48.375C88.2483 46.2517 87.28 43.2067 87.28 39.24V36.23H94.56V39.73C94.56 41.5033 94.9217 42.74 95.645 43.44C96.3683 44.14 97.3367 44.49 98.55 44.49C99.7633 44.49 100.732 44.14 101.455 43.44C102.178 42.74 102.54 41.5033 102.54 39.73C102.54 38.05 102.167 36.5683 101.42 35.285C100.673 34.0017 99.74 32.7883 98.62 31.645C97.5 30.5017 96.2983 29.3583 95.015 28.215C93.7317 27.0717 92.53 25.8233 91.41 24.47C90.29 23.1167 89.3567 21.5767 88.61 19.85C87.8633 18.1233 87.49 16.0933 87.49 13.76ZM113.2 2H137V9H128.95V51H121.25V9H113.2V2ZM157.25 51C157.157 50.6733 157.063 50.37 156.97 50.09C156.877 49.81 156.795 49.46 156.725 49.04C156.655 48.62 156.608 48.0833 156.585 47.43C156.562 46.7767 156.55 45.96 156.55 44.98V37.28C156.55 34.9933 156.153 33.3833 155.36 32.45C154.567 31.5167 153.283 31.05 151.51 31.05H148.85V51H141.15V2H152.77C156.783 2 159.688 2.93333 161.485 4.8C163.282 6.66668 164.18 9.48998 164.18 13.27V17.12C164.18 22.16 162.5 25.4733 159.14 27.06C161.1 27.8533 162.442 29.1483 163.165 30.945C163.888 32.7417 164.25 34.9233 164.25 37.49V45.05C164.25 46.2633 164.297 47.325 164.39 48.235C164.483 49.145 164.717 50.0667 165.09 51H157.25ZM148.85 9V24.05H151.86C153.307 24.05 154.438 23.6767 155.255 22.93C156.072 22.1833 156.48 20.83 156.48 18.87V14.04C156.48 12.2667 156.165 10.9833 155.535 10.19C154.905 9.39667 153.913 9 152.56 9H148.85ZM177.43 2V39.8C177.43 41.5733 177.792 42.81 178.515 43.51C179.238 44.21 180.207 44.56 181.42 44.56C182.633 44.56 183.602 44.21 184.325 43.51C185.048 42.81 185.41 41.5733 185.41 39.8V2H192.69V39.31C192.69 43.2767 191.722 46.3217 189.785 48.445C187.848 50.5683 184.99 51.63 181.21 51.63C177.43 51.63 174.572 50.5683 172.635 48.445C170.698 46.3217 169.73 43.2767 169.73 39.31V2H177.43ZM219.77 2H243.57V9H235.52V51H227.82V9H219.77V2Z" fill="white"/>
<path fill-rule="evenodd" clip-rule="evenodd" d="M196.348 27.4644L216.348 2.46442V52.4644L196.348 27.4644Z" fill="#00A4E5"/>
</svg>
